<mxfile host="65bd71144e">
    <diagram id="ngtMqkxNbMfGEAZ89hnm" name="페이지-1">
        <mxGraphModel dx="2004" dy="2024" grid="1" gridSize="10" guides="1" tooltips="1" connect="1" arrows="1" fold="1" page="1" pageScale="1" pageWidth="827" pageHeight="1169" background="#000000" math="0" shadow="0">
            <root>
                <mxCell id="0"/>
                <mxCell id="1" parent="0"/>
                <mxCell id="22" value="" style="edgeStyle=none;hachureGap=4;html=1;fontFamily=Architects Daughter;fontSource=https%3A%2F%2Ffonts.googleapis.com%2Fcss%3Ffamily%3DArchitects%2BDaughter;fontSize=20;fontColor=default;rounded=0;strokeColor=#F0F0F0;" edge="1" parent="1" source="2" target="17">
                    <mxGeometry relative="1" as="geometry"/>
                </mxCell>
                <mxCell id="2" value="MQttInNode" style="whiteSpace=wrap;html=1;hachureGap=4;fontFamily=Architects Daughter;fontSource=https%3A%2F%2Ffonts.googleapis.com%2Fcss%3Ffamily%3DArchitects%2BDaughter;fontSize=20;rounded=0;" vertex="1" parent="1">
                    <mxGeometry x="-60" y="40" width="110" height="100" as="geometry"/>
                </mxCell>
                <mxCell id="11" value="&lt;p&gt;simpleNodeRed&lt;/p&gt;" style="whiteSpace=wrap;html=1;hachureGap=4;fontFamily=Architects Daughter;fontSource=https%3A%2F%2Ffonts.googleapis.com%2Fcss%3Ffamily%3DArchitects%2BDaughter;fontSize=20;rounded=0;" vertex="1" parent="1">
                    <mxGeometry x="140" y="-130" width="150" height="90" as="geometry"/>
                </mxCell>
                <mxCell id="12" value="settingNode" style="whiteSpace=wrap;html=1;hachureGap=4;fontFamily=Architects Daughter;fontSource=https%3A%2F%2Ffonts.googleapis.com%2Fcss%3Ffamily%3DArchitects%2BDaughter;fontSize=20;rounded=0;" vertex="1" parent="1">
                    <mxGeometry x="350" y="-130" width="130" height="90" as="geometry"/>
                </mxCell>
                <mxCell id="15" value="" style="edgeStyle=none;hachureGap=4;html=1;fontFamily=Architects Daughter;fontSource=https%3A%2F%2Ffonts.googleapis.com%2Fcss%3Ffamily%3DArchitects%2BDaughter;fontSize=20;fontColor=default;rounded=0;strokeColor=#FFFFFF;" edge="1" parent="1" target="12">
                    <mxGeometry relative="1" as="geometry">
                        <mxPoint x="540.6840394081114" y="-165.52117284167093" as="sourcePoint"/>
                    </mxGeometry>
                </mxCell>
                <mxCell id="14" value="nodesetting.json" style="ellipse;whiteSpace=wrap;html=1;hachureGap=4;strokeColor=default;fontFamily=Architects Daughter;fontSource=https%3A%2F%2Ffonts.googleapis.com%2Fcss%3Ffamily%3DArchitects%2BDaughter;fontSize=20;fontColor=default;fillColor=default;rounded=0;" vertex="1" parent="1">
                    <mxGeometry x="510" y="-250" width="150" height="100" as="geometry"/>
                </mxCell>
                <mxCell id="23" value="" style="edgeStyle=none;hachureGap=4;html=1;fontFamily=Architects Daughter;fontSource=https%3A%2F%2Ffonts.googleapis.com%2Fcss%3Ffamily%3DArchitects%2BDaughter;fontSize=20;fontColor=default;rounded=0;strokeColor=#F0F0F0;" edge="1" parent="1" source="17" target="19">
                    <mxGeometry relative="1" as="geometry"/>
                </mxCell>
                <mxCell id="17" value="SplitNode" style="whiteSpace=wrap;html=1;hachureGap=4;fontFamily=Architects Daughter;fontSource=https%3A%2F%2Ffonts.googleapis.com%2Fcss%3Ffamily%3DArchitects%2BDaughter;fontSize=20;rounded=0;" vertex="1" parent="1">
                    <mxGeometry x="100" y="40" width="120" height="100" as="geometry"/>
                </mxCell>
                <mxCell id="24" value="" style="edgeStyle=none;hachureGap=4;html=1;fontFamily=Architects Daughter;fontSource=https%3A%2F%2Ffonts.googleapis.com%2Fcss%3Ffamily%3DArchitects%2BDaughter;fontSize=20;fontColor=default;rounded=0;strokeColor=#F0F0F0;" edge="1" parent="1" source="19" target="20">
                    <mxGeometry relative="1" as="geometry"/>
                </mxCell>
                <mxCell id="19" value="ReduceTopicNode" style="whiteSpace=wrap;html=1;hachureGap=4;fontFamily=Architects Daughter;fontSource=https%3A%2F%2Ffonts.googleapis.com%2Fcss%3Ffamily%3DArchitects%2BDaughter;fontSize=20;rounded=0;" vertex="1" parent="1">
                    <mxGeometry x="260" y="40" width="180" height="100" as="geometry"/>
                </mxCell>
                <mxCell id="25" value="" style="edgeStyle=none;hachureGap=4;html=1;fontFamily=Architects Daughter;fontSource=https%3A%2F%2Ffonts.googleapis.com%2Fcss%3Ffamily%3DArchitects%2BDaughter;fontSize=20;fontColor=default;fillColor=#e1d5e7;strokeColor=#F0F0F0;rounded=0;" edge="1" parent="1" source="20" target="21">
                    <mxGeometry relative="1" as="geometry"/>
                </mxCell>
                <mxCell id="20" value="PlaceTranslatorNode" style="whiteSpace=wrap;html=1;hachureGap=4;fontFamily=Architects Daughter;fontSource=https%3A%2F%2Ffonts.googleapis.com%2Fcss%3Ffamily%3DArchitects%2BDaughter;fontSize=20;rounded=0;" vertex="1" parent="1">
                    <mxGeometry x="480" y="40" width="200" height="100" as="geometry"/>
                </mxCell>
                <mxCell id="30" style="edgeStyle=none;hachureGap=4;html=1;exitX=0.5;exitY=1;exitDx=0;exitDy=0;entryX=0;entryY=0;entryDx=0;entryDy=0;fontFamily=Architects Daughter;fontSource=https%3A%2F%2Ffonts.googleapis.com%2Fcss%3Ffamily%3DArchitects%2BDaughter;fontSize=20;fontColor=default;rounded=0;strokeColor=#F0F0F0;" edge="1" parent="1" source="21" target="28">
                    <mxGeometry relative="1" as="geometry"/>
                </mxCell>
                <mxCell id="21" value="MQttOutNode" style="whiteSpace=wrap;html=1;hachureGap=4;fontFamily=Architects Daughter;fontSource=https%3A%2F%2Ffonts.googleapis.com%2Fcss%3Ffamily%3DArchitects%2BDaughter;fontSize=20;rounded=0;" vertex="1" parent="1">
                    <mxGeometry x="720" y="40" width="150" height="100" as="geometry"/>
                </mxCell>
                <mxCell id="48" style="edgeStyle=none;hachureGap=4;html=1;exitX=1;exitY=1;exitDx=0;exitDy=0;entryX=0.5;entryY=0;entryDx=0;entryDy=0;fontFamily=Architects Daughter;fontSource=https%3A%2F%2Ffonts.googleapis.com%2Fcss%3Ffamily%3DArchitects%2BDaughter;fontSize=20;fontColor=default;rounded=0;strokeColor=#F0F0F0;" edge="1" parent="1" source="26" target="2">
                    <mxGeometry relative="1" as="geometry"/>
                </mxCell>
                <mxCell id="26" value="ems" style="rhombus;whiteSpace=wrap;html=1;hachureGap=4;strokeColor=default;fontFamily=Architects Daughter;fontSource=https%3A%2F%2Ffonts.googleapis.com%2Fcss%3Ffamily%3DArchitects%2BDaughter;fontSize=20;fontColor=default;fillColor=default;rounded=0;" vertex="1" parent="1">
                    <mxGeometry x="-110" y="-130" width="80" height="90" as="geometry"/>
                </mxCell>
                <mxCell id="28" value="telegraf" style="rhombus;whiteSpace=wrap;html=1;hachureGap=4;strokeColor=default;fontFamily=Architects Daughter;fontSource=https%3A%2F%2Ffonts.googleapis.com%2Fcss%3Ffamily%3DArchitects%2BDaughter;fontSize=20;fontColor=default;fillColor=default;rounded=0;" vertex="1" parent="1">
                    <mxGeometry x="850" y="180" width="100" height="100" as="geometry"/>
                </mxCell>
            </root>
        </mxGraphModel>
    </diagram>
</mxfile>